PathFileType	4	(X/Y/Z)	E:\3-PhD\Data\MocapData\ElaboratedData\009\pre\dynamicElaborations\RunL2\RunL2.trc
DataRate	CameraRate	NumFrames	NumMarkers	Units	OrigDataRate	DataStartFrame
200	200	5	54	mm	200	562
Frame#	Time	FHD			LBHD			RBHD			C7			T10			CLAV			LSHO			LUUPA			LMUPA			LDUPA			LLEP			LMEP			LRAD			LUL			LRFIN			RSHO			RUPA1			RMUPA			RDUPA			RLEP			RMEP			RRAD			RUL			RUFIN			RASI			USACR			LSACR			RSACR			LTHI1			LTHI2			LTHI3			LTHI4			LTIB1			LTIB2			LTIB3			LTIB4			LLMAL			LHEE			LMT1			LMT2			RTHI			RTHI2			RTHI3			RTHI4			RLFC			RTIB1			RTIB2			RTIB3			RTIB4			RLMAL			RHEE			RMT1			RMT2			RMT5		
		X1	Y1	Z1	X2	Y2	Z2	X3	Y3	Z3	X4	Y4	Z4	X5	Y5	Z5	X6	Y6	Z6	X7	Y7	Z7	X8	Y8	Z8	X9	Y9	Z9	X10	Y10	Z10	X11	Y11	Z11	X12	Y12	Z12	X13	Y13	Z13	X14	Y14	Z14	X15	Y15	Z15	X16	Y16	Z16	X17	Y17	Z17	X18	Y18	Z18	X19	Y19	Z19	X20	Y20	Z20	X21	Y21	Z21	X22	Y22	Z22	X23	Y23	Z23	X24	Y24	Z24	X25	Y25	Z25	X26	Y26	Z26	X27	Y27	Z27	X28	Y28	Z28	X29	Y29	Z29	X30	Y30	Z30	X31	Y31	Z31	X32	Y32	Z32	X33	Y33	Z33	X34	Y34	Z34	X35	Y35	Z35	X36	Y36	Z36	X37	Y37	Z37	X38	Y38	Z38	X39	Y39	Z39	X40	Y40	Z40	X41	Y41	Z41	X42	Y42	Z42	X43	Y43	Z43	X44	Y44	Z44	X45	Y45	Z45	X46	Y46	Z46	X47	Y47	Z47	X48	Y48	Z48	X49	Y49	Z49	X50	Y50	Z50	X51	Y51	Z51	X52	Y52	Z52	X53	Y53	Z53	X54	Y54	Z54	

576	2.875000	-418.434569	1462.312947	-118.689697	-616.828664	1435.306916	-94.828269	-517.390967	1445.538985	-16.581175	-655.080833	1333.242571	-45.914166	-839.847627	1043.999257	40.184141	-567.967767	1191.529054	-65.572799	-625.397236	1231.166049	-205.622444	-798.938951	1122.519913	-259.628585	-790.933639	1075.126180	-249.922984	-850.415864	1077.053757	-261.599217	-948.866987	1011.790459	-252.850604	-960.740241	1016.561145	-176.466008	-985.499105	756.470839	-200.473469	-1056.521795	770.032635	-221.443613	-1000.605025	683.691532	-232.693387	-558.391204	1299.299510	87.642320	-605.321932	1210.108666	235.949187	-583.593117	1171.314547	244.658992	-619.632470	1172.194095	291.373294	-645.564303	1063.286813	374.425807	-690.868769	1023.837586	336.690265	-440.396311	993.988861	234.230555	-432.105729	951.787791	291.525726	-361.572471	1005.957883	243.130042	-671.648830	866.611300	137.373170	-874.995115	953.146492	72.094346	-888.304926	915.128308	57.768577	-866.049901	931.754289	110.240760	-733.069584	611.755409	-140.244199	-664.458534	572.833521	-172.587260	-630.102540	604.516052	-181.417582	-646.262124	513.823128	-163.235024	-593.762029	342.145791	-49.953629	-680.441387	361.075834	-56.018551	-650.498698	336.130032	-37.736017	-681.987090	317.972734	40.785171	-813.351238	304.755277	130.156502	-859.239366	360.824130	203.799696	-713.489357	191.628769	195.433824	-738.532671	177.673258	156.708931	-670.868786	678.615368	305.538339	-626.079561	632.752238	316.503228	-595.392739	631.044251	302.100456	-644.556799	551.150884	339.768614	-607.541396	452.065129	367.057429	-639.515784	242.361608	429.254571	-713.202869	225.347681	507.842694	-681.640067	197.342575	488.559107	-705.409620	145.492246	482.906208	-775.610518	105.869030	565.111223	-863.968727	59.630894	570.561971	-653.133793	57.657379	483.182098	-639.328642	57.619443	521.198207	-658.099060	34.443012	585.331998	
577	2.880000	-394.999282	1460.481777	-131.805925	-593.294559	1433.101629	-106.549752	-493.284342	1443.458678	-29.052397	-630.465869	1330.881588	-55.802188	-814.557947	1042.230858	32.940289	-543.818843	1188.856031	-77.148928	-604.805340	1228.485538	-216.387710	-782.678117	1125.821311	-266.504272	-775.652601	1077.718298	-258.859283	-835.675964	1082.289887	-267.867556	-935.041689	1018.575615	-257.865260	-945.616668	1023.741167	-181.469770	-976.746942	764.665779	-203.332036	-1047.772088	779.707486	-223.507036	-993.851483	691.841305	-234.600299	-529.360941	1298.526244	74.366538	-567.975089	1208.204491	224.024917	-544.771817	1170.158341	231.927117	-578.693854	1169.837166	280.095101	-597.678578	1060.014244	363.685144	-643.904393	1019.113577	327.709301	-398.049096	1000.402391	212.510482	-384.662218	958.243379	268.804127	-319.702175	1015.746535	217.688012	-646.879010	865.668615	133.111437	-849.930720	951.401926	64.790046	-863.077696	913.339260	50.290924	-841.415013	930.040103	102.990778	-704.852454	614.203127	-149.070941	-635.317527	578.430979	-183.045475	-602.465173	611.606862	-192.185932	-614.492251	520.253070	-174.474406	-550.490499	346.980748	-63.936447	-638.203835	361.057157	-66.839465	-606.328087	337.329194	-50.044235	-634.176179	315.725637	29.113589	-761.840031	292.904493	121.910979	-808.773649	344.667302	197.877221	-653.481726	185.017580	181.987221	-678.739308	170.226770	143.652360	-650.449859	677.447524	301.754284	-606.906553	630.676208	313.421251	-576.269135	628.059066	299.033600	-627.456108	549.965547	337.952758	-593.943164	449.454174	366.405896	-632.856026	240.880988	429.766816	-708.024878	226.362556	507.582906	-676.954276	197.345569	488.845890	-702.115937	146.019294	482.855540	-774.116627	108.655307	564.161211	-863.598566	64.198018	569.296704	-652.377928	57.588545	483.247760	-638.817205	57.366728	521.292556	-658.430531	34.478597	585.332585	
578	2.885000	-371.615897	1459.237424	-144.933257	-569.838492	1431.485509	-118.627785	-469.385257	1441.905577	-41.740232	-605.844401	1329.066039	-66.089350	-789.018896	1040.815865	25.446754	-519.708338	1186.850362	-89.148084	-584.253863	1226.583510	-227.453089	-766.008608	1129.952808	-273.704418	-760.081771	1081.230806	-267.927286	-820.428459	1088.314273	-274.440910	-920.819875	1026.283966	-263.151239	-930.164593	1031.931031	-186.851516	-966.125680	773.772216	-206.202769	-1037.156878	789.843772	-225.675992	-984.658687	700.863353	-236.326360	-500.542975	1298.392949	60.431558	-531.553401	1207.308489	211.267538	-506.835818	1170.051447	218.375659	-539.072625	1168.446916	267.700530	-550.961642	1057.948686	351.335291	-597.610520	1015.463116	316.713812	-357.260810	1008.079304	189.780452	-338.951203	966.223620	244.788202	-279.807848	1026.915638	191.428346	-621.854564	865.330322	128.561321	-824.539221	950.008364	57.239685	-837.590674	911.946401	42.488799	-816.538315	928.592431	95.447355	-676.922904	616.813317	-157.956291	-606.558380	584.139539	-193.325313	-575.235374	618.725456	-202.711193	-583.202615	526.898950	-185.432906	-507.571733	352.034197	-77.908886	-595.965332	360.923937	-77.861882	-562.251075	338.608125	-62.589662	-586.236739	313.586892	16.952293	-709.639739	280.965861	112.739316	-757.427348	328.161940	190.985496	-593.142436	178.949619	167.480806	-618.463860	163.376014	129.481378	-630.270352	676.424567	297.587066	-588.186199	628.663372	310.057154	-557.586695	625.093232	295.800945	-611.086801	548.951998	335.659156	-581.271660	447.215575	365.465072	-626.510647	239.982801	429.895133	-702.858946	227.936421	507.072494	-672.319281	197.952559	488.815457	-698.784609	147.159397	482.609852	-772.338934	112.012259	563.233464	-862.908351	69.614640	568.101804	-651.528151	57.442418	483.298417	-638.206553	57.070189	521.364424	-658.714657	34.580884	585.308444	
579	2.890000	-348.244368	1458.556209	-158.077370	-546.423512	1430.448357	-131.059725	-445.648969	1440.858196	-54.644113	-581.220333	1327.772315	-76.797177	-763.178415	1039.756694	17.764253	-495.615687	1185.478707	-101.568670	-563.694840	1225.399725	-238.812065	-748.842437	1134.747832	-281.234585	-744.113931	1085.519492	-277.057348	-804.572534	1094.931716	-281.305599	-906.120642	1034.789532	-268.622878	-914.268464	1040.988012	-192.510246	-953.713863	783.585757	-209.145858	-1024.783374	800.307007	-227.965494	-973.192995	710.550451	-238.010357	-471.971394	1298.844934	45.876119	-496.058428	1207.308382	197.756247	-469.829734	1170.864697	204.080634	-500.745221	1167.938336	254.313951	-505.527618	1056.957351	337.523161	-552.169689	1012.803998	303.854225	-318.164478	1016.854322	166.218123	-295.141558	975.559690	219.690487	-241.998102	1039.260625	164.537492	-596.510880	865.478561	123.657871	-798.773630	948.993489	49.519301	-811.792824	910.969993	34.469235	-791.318299	927.466914	87.693306	-649.244379	619.582396	-166.880217	-578.147123	589.901771	-203.419581	-548.350067	625.801456	-212.996040	-552.390784	533.669636	-196.109169	-465.052655	357.227228	-91.903932	-553.740810	360.655982	-89.153000	-518.306171	339.944518	-75.420194	-538.183612	311.602727	4.273624	-656.766892	269.098898	102.566826	-705.162122	311.520108	183.033666	-532.616676	173.501264	151.925579	-557.858943	157.222367	114.193176	-610.386232	675.496226	293.049348	-569.968966	626.676164	306.429765	-539.396161	622.125541	292.446627	-595.511452	548.073082	332.836963	-569.539341	445.403687	364.174190	-620.427560	239.676057	429.582058	-697.634510	230.066762	506.287430	-667.671354	199.152066	488.427276	-695.360650	148.912478	482.162968	-770.218547	115.934321	562.358465	-861.819421	75.878226	567.040380	-650.615091	57.222053	483.339864	-637.513827	56.745220	521.419731	-658.924750	34.782186	585.274138	
580	2.895000	-324.858943	1458.399453	-171.265734	-523.019123	1429.969496	-143.835903	-422.031163	1440.287020	-67.765058	-556.601755	1326.966375	-87.930676	-736.995135	1039.053498	9.940712	-471.528894	1184.700361	-114.395006	-543.076924	1224.856013	-250.449108	-731.110557	1140.038916	-289.091739	-727.652801	1090.429827	-286.196464	-788.032578	1101.959923	-288.443646	-890.861710	1043.950925	-274.196350	-897.806450	1050.748696	-198.341364	-939.608587	793.913392	-212.224318	-1010.767124	810.982628	-230.380216	-959.658626	720.713022	-239.787546	-443.684652	1299.823786	30.761962	-461.457641	1208.075245	183.552334	-433.759268	1172.453777	189.099614	-463.617046	1168.209017	240.048194	-461.441371	1056.897469	322.415852	-507.740772	1011.043058	289.320770	-280.849445	1026.527993	142.017728	-253.348982	986.042237	193.736275	-206.324730	1052.537511	137.202682	-570.796489	865.972546	118.344832	-772.590413	948.391212	41.690366	-785.641040	910.434185	26.337192	-765.657768	926.732520	79.804709	-621.778344	622.514285	-175.819796	-550.048719	595.659829	-213.326519	-521.741270	632.766029	-223.048415	-522.056129	540.471974	-206.506702	-422.983126	362.482449	-105.956634	-511.561389	360.243526	-100.764688	-474.544343	341.318768	-88.577475	-490.046763	309.814492	-8.941327	-603.250431	257.449590	91.348667	-651.973253	294.951027	173.948590	-472.038551	168.723171	135.351551	-497.078067	151.833006	97.811318	-590.786343	674.689056	288.126722	-552.229201	624.756312	302.490365	-521.687877	619.206005	288.907758	-580.678271	547.384506	329.438078	-558.647152	444.111935	362.427883	-614.529069	239.990102	428.770840	-692.270081	232.768159	505.197031	-662.926524	200.956286	487.644525	-691.762145	151.288979	481.489211	-767.683288	120.427057	561.527756	-860.237929	82.991830	566.114896	-649.662041	56.923839	483.373322	-636.745703	56.402606	521.454689	-659.032498	35.121976	585.234492	
